<?xml version="1.0" encoding="utf-8"?>
<!-- Generator: Adobe Illustrator 15.0.2, SVG Export Plug-In . SVG Version: 6.00 Build 0)  -->
<!DOCTYPE svg PUBLIC "-//W3C//DTD SVG 1.1//EN" "http://www.w3.org/Graphics/SVG/1.1/DTD/svg11.dtd">
<svg version="1.1" id="Layer_1" xmlns="http://www.w3.org/2000/svg" xmlns:xlink="http://www.w3.org/1999/xlink" x="0px" y="0px"
	 width="250px" height="297px" viewBox="0 0 250 297" enable-background="new 0 0 250 297" xml:space="preserve">
<rect fill="#E3E2EA" width="250" height="297"/>
<rect x="4.5" y="122.332" fill="#FDEC7F" width="137.997" height="171.168"/>
<rect x="77.146" y="173.64" fill="#FFFFFF" stroke="#000000" stroke-miterlimit="10" width="51.639" height="37.347"/>
<rect x="142.497" y="122.332" fill="#E0A3C9" width="104.336" height="171.168"/>
<rect x="4.5" y="18.333" fill="#E3F3F6" width="242.333" height="104"/>
<rect x="157.25" y="125.5" fill="#FFFFFF" stroke="#000000" stroke-miterlimit="10" width="86.75" height="86.75"/>
<rect x="17.167" y="23.625" fill="#FFFFFF" stroke="#000000" stroke-miterlimit="10" width="24.521" height="15.5"/>
<text transform="matrix(1 0 0 1 26.2354 35.875)" font-family="'Helvetica'" font-size="12">L</text>
<rect x="43.759" y="23.625" fill="#FFFFFF" stroke="#000000" stroke-miterlimit="10" width="24.479" height="15.5"/>
<text transform="matrix(1 0 0 1 51.665 35.875)" font-family="'Helvetica'" font-size="12">R</text>
<rect x="17.167" y="53.125" fill="#FFFFFF" stroke="#000000" stroke-miterlimit="10" width="51.07" height="15.5"/>
<text transform="matrix(1 0 0 1 28.3745 65.375)" font-family="'Helvetica'" font-size="12">DISC</text>
<rect x="30.441" y="83.875" fill="#FFFFFF" stroke="#000000" stroke-miterlimit="10" width="24.521" height="15.5"/>
<text transform="matrix(1 0 0 1 35.0322 95.875)" font-family="'Helvetica'" font-size="12">C8</text>
<rect x="210.22" y="68" fill="#FFFFFF" stroke="#000000" stroke-miterlimit="10" width="24.521" height="15.5"/>
<text transform="matrix(1 0 0 1 213.8086 80)" font-family="'Helvetica'" font-size="12">Bid</text>
<rect x="166.132" y="139" fill="#FFFFFF" stroke="#000000" stroke-miterlimit="10" width="30.756" height="15.5"/>
<text transform="matrix(1 0 0 1 171.1704 150.75)" font-family="'Helvetica'" font-size="12">Bax</text>
<rect x="208.715" y="103.25" fill="#FFFFFF" stroke="#000000" stroke-miterlimit="10" width="27.531" height="15.5"/>
<text transform="matrix(1 0 0 1 212.1426 115.25)" font-family="'Helvetica'" font-size="12">tBid</text>
<rect x="208.715" y="149.5" fill="#FFFFFF" stroke="#000000" stroke-miterlimit="10" width="27.531" height="15.5"/>
<text transform="matrix(1 0 0 1 212.1426 161.5)" font-family="'Helvetica'" font-size="12">tBid</text>
<rect x="166.206" y="175.5" fill="#FFFFFF" stroke="#000000" stroke-miterlimit="10" width="30.607" height="15.5"/>
<text transform="matrix(1 0 0 1 168.8359 187.25)" font-family="'Helvetica'" font-size="12">Bax*</text>
<rect x="207.103" y="175.5" fill="#FFFFFF" stroke="#000000" stroke-miterlimit="10" width="30.756" height="15.5"/>
<text transform="matrix(1 0 0 1 210.25 187.25)" font-family="'Helvetica'" font-size="12">Bcl2</text>
<rect x="186.206" y="204.5" fill="#FFFFFF" stroke="#000000" stroke-miterlimit="10" width="30.607" height="15.5"/>
<text transform="matrix(1 0 0 1 188.8359 216.25)" font-family="'Helvetica'" font-size="12">Pore</text>
<rect x="144.995" y="223.75" fill="#FFFFFF" stroke="#000000" stroke-miterlimit="10" width="30.755" height="15.5"/>
<text transform="matrix(1 0 0 1 148.7065 235.5)" font-family="'Helvetica'" font-size="12">CyC</text>
<rect x="183.741" y="246.5" fill="#FFFFFF" stroke="#000000" stroke-miterlimit="10" width="35.537" height="15.5"/>
<text transform="matrix(1 0 0 1 186.1729 258)" font-family="'Helvetica'" font-size="12">Smac</text>
<rect x="87.587" y="219.018" fill="#FFFFFF" stroke="#000000" stroke-miterlimit="10" width="30.756" height="15.5"/>
<text transform="matrix(1 0 0 1 89.3979 230.5176)" font-family="'Helvetica'" font-size="12">XIAP</text>
<rect x="79.431" y="196.696" fill="#FFFFFF" stroke="#000000" stroke-miterlimit="10" width="23.442" height="11.814"/>
<rect x="102.871" y="196.696" fill="#FFFFFF" stroke="#000000" stroke-miterlimit="10" width="23.442" height="11.814"/>
<text transform="matrix(1 0 0 1 105.7026 205.6533)" font-family="'Helvetica'" font-size="9.1463">CyC</text>
<text transform="matrix(1 0 0 1 81.8135 205.2705)" font-family="'Helvetica'" font-size="9.1463">Apaf</text>
<rect x="94.14" y="184.882" fill="#FFFFFF" stroke="#000000" stroke-miterlimit="10" width="17.465" height="11.814"/>
<text transform="matrix(1 0 0 1 97.0273 194.2178)" font-family="'Helvetica'" font-size="9.1463">C9</text>
<text transform="matrix(1 0 0 1 78.29 179.7373)" font-family="'Helvetica-Oblique'" font-size="6.0976">Apoptosome</text>
<rect x="29.385" y="219.018" fill="#FFFFFF" stroke="#000000" stroke-miterlimit="10" width="24.521" height="15.5"/>
<text transform="matrix(1 0 0 1 33.9756 231.0176)" font-family="'Helvetica'" font-size="12">C3</text>
<rect x="20.702" y="246.5" fill="#FFFFFF" stroke="#000000" stroke-miterlimit="10" width="44" height="15.5"/>
<text transform="matrix(1 0 0 1 23.1338 258)" font-family="'Helvetica'" font-size="12">cPARP</text>
<g>
	<g>
		<line fill="none" stroke="#000000" stroke-miterlimit="10" x1="42.702" y1="39.125" x2="42.702" y2="47.155"/>
		<g>
			<polygon points="38.999,44.347 42.702,45.92 46.405,44.347 42.702,53.125 			"/>
		</g>
	</g>
</g>
<g>
	<g>
		<line fill="none" stroke="#000000" stroke-miterlimit="10" x1="42.702" y1="69.5" x2="42.702" y2="77.53"/>
		<g>
			<polygon points="38.999,74.722 42.702,76.295 46.405,74.722 42.702,83.5 			"/>
		</g>
	</g>
</g>
<g>
	<g>
		<line fill="none" stroke="#000000" stroke-miterlimit="10" x1="222.48" y1="83.5" x2="222.48" y2="96.905"/>
		<g>
			<polygon points="218.777,94.097 222.48,95.67 226.184,94.097 222.48,102.875 			"/>
		</g>
	</g>
</g>
<g>
	<g>
		<line fill="none" stroke="#000000" stroke-miterlimit="10" x1="222.48" y1="118.75" x2="222.48" y2="143.53"/>
		<g>
			<polygon points="218.777,140.722 222.48,142.295 226.184,140.722 222.48,149.5 			"/>
		</g>
	</g>
</g>
<g>
	<g>
		<line fill="none" stroke="#000000" stroke-miterlimit="10" x1="181.51" y1="154.25" x2="181.51" y2="169.53"/>
		<g>
			<polygon points="177.807,166.722 181.51,168.295 185.213,166.722 181.51,175.5 			"/>
		</g>
	</g>
</g>
<g>
	<g>
		<line fill="none" stroke="#000000" stroke-miterlimit="10" x1="201.51" y1="220" x2="201.51" y2="239.979"/>
		<g>
			<polygon points="197.807,237.171 201.51,238.744 205.213,237.171 201.51,245.949 			"/>
		</g>
	</g>
</g>
<text transform="matrix(1 0 0 1 159.1665 134.998)" font-family="'Helvetica-Oblique'" font-size="8">Mitochondria</text>
<line fill="none" stroke="#000000" stroke-miterlimit="10" x1="191.171" y1="220" x2="191.171" y2="231.5"/>
<g>
	<g>
		<line fill="none" stroke="#000000" stroke-miterlimit="10" x1="191.171" y1="231.5" x2="181.72" y2="231.5"/>
		<g>
			<polygon points="184.528,227.797 182.955,231.5 184.528,235.203 175.75,231.5 			"/>
		</g>
	</g>
</g>
<g>
	<g>
		<line fill="none" stroke="#000000" stroke-miterlimit="10" x1="54.963" y1="91.625" x2="210.844" y2="91.625"/>
		<g>
			<polygon points="208.035,95.328 209.608,91.625 208.035,87.922 216.813,91.625 			"/>
		</g>
	</g>
</g>
<g>
	<g>
		<line fill="none" stroke="#000000" stroke-miterlimit="10" x1="42.702" y1="234.357" x2="42.702" y2="240.013"/>
		<g>
			<polygon points="38.999,237.204 42.702,238.777 46.405,237.204 42.702,245.982 			"/>
		</g>
	</g>
</g>
<line fill="none" stroke="#000000" stroke-miterlimit="10" x1="199.211" y1="179.667" x2="199.211" y2="186.833"/>
<line fill="none" stroke="#000000" stroke-miterlimit="10" x1="204.875" y1="179.667" x2="204.875" y2="186.833"/>
<line fill="none" stroke="#000000" stroke-miterlimit="10" x1="218.897" y1="167.545" x2="226.063" y2="167.545"/>
<line fill="none" stroke="#000000" stroke-miterlimit="10" x1="218.897" y1="173.206" x2="226.063" y2="173.206"/>
<line fill="none" stroke="#000000" stroke-miterlimit="10" x1="199.211" y1="183.25" x2="204.875" y2="183.25"/>
<line fill="none" stroke="#000000" stroke-miterlimit="10" x1="222.48" y1="173.206" x2="222.48" y2="167.545"/>
<g>
	<g>
		<line fill="none" stroke="#000000" stroke-miterlimit="10" x1="208.715" y1="161.5" x2="189.72" y2="161.5"/>
		<g>
			<polygon points="192.528,157.797 190.955,161.5 192.528,165.203 183.75,161.5 			"/>
		</g>
	</g>
</g>
<line fill="none" stroke="#000000" stroke-miterlimit="10" x1="77.146" y1="192.312" x2="50.665" y2="192.312"/>
<g>
	<g>
		<line fill="none" stroke="#000000" stroke-miterlimit="10" x1="42.702" y1="99.375" x2="42.702" y2="212.78"/>
		<g>
			<polygon points="38.999,209.972 42.702,211.545 46.405,209.972 42.702,218.75 			"/>
		</g>
	</g>
</g>
<g>
	<g>
		<line fill="none" stroke="#000000" stroke-miterlimit="10" x1="50.665" y1="192.312" x2="50.665" y2="212.78"/>
		<g>
			<polygon points="46.962,209.972 50.665,211.545 54.368,209.972 50.665,218.75 			"/>
		</g>
	</g>
</g>
<line fill="none" stroke="#000000" stroke-miterlimit="10" x1="144.995" y1="226.768" x2="140" y2="226.768"/>
<line fill="none" stroke="#000000" stroke-miterlimit="10" x1="140" y1="226.768" x2="140" y2="192.312"/>
<g>
	<g>
		<line fill="none" stroke="#000000" stroke-miterlimit="10" x1="140.25" y1="192.312" x2="134.754" y2="192.312"/>
		<g>
			<polygon points="137.563,188.609 135.99,192.312 137.563,196.016 128.785,192.312 			"/>
		</g>
	</g>
</g>
<line fill="none" stroke="#000000" stroke-miterlimit="10" x1="183.75" y1="255.167" x2="102.965" y2="255.167"/>
<line fill="none" stroke="#000000" stroke-miterlimit="10" x1="99.288" y1="237.5" x2="106.454" y2="237.5"/>
<line fill="none" stroke="#000000" stroke-miterlimit="10" x1="102.965" y1="255.167" x2="102.965" y2="237.5"/>
<line fill="none" stroke="#000000" stroke-miterlimit="10" x1="87.587" y1="226.5" x2="56.5" y2="226.5"/>
<line fill="none" stroke="#000000" stroke-miterlimit="10" x1="56.5" y1="222.917" x2="56.5" y2="230.083"/>
<g>
	<g>
		<line fill="none" stroke="#000000" stroke-miterlimit="10" x1="191.171" y1="191" x2="191.171" y2="198.53"/>
		<g>
			<polygon points="187.468,195.722 191.171,197.295 194.874,195.722 191.171,204.5 			"/>
		</g>
	</g>
</g>
<text transform="matrix(1 0 0 1 147.9946 288)" font-family="'Arial-ItalicMT'" font-size="8">MOMP: Models M1b-M15b</text>
<text transform="matrix(1 0 0 1 9.167 11)" font-family="'Arial-ItalicMT'" font-size="8">Extrinsic Apoptosis: Models M1a-M15a</text>
<text transform="matrix(1 0 0 1 105 41)" font-family="'Consolas'" font-size="8">albeck_modules.rec_to_bid()</text>
<text transform="matrix(1 0 0 1 6.5 288)" font-family="'Consolas'" font-size="8">albeck_modules.pore_to_parp()</text>
<text transform="matrix(1 0 0 1 105 29.5)" font-family="'Arial-ItalicMT'" font-size="8">Receptor to Bid cleavage (EARM 1.0):</text>
<text transform="matrix(1 0 0 1 6.5 278)" font-family="'Arial-ItalicMT'" font-size="8">Pore to PARP cleavage (EARM 1.0):</text>
</svg>
